<?xml version="1.0" encoding="iso-8859-1"?>
<!-- Generator: Adobe Illustrator 16.0.0, SVG Export Plug-In . SVG Version: 6.00 Build 0)  -->
<!DOCTYPE svg PUBLIC "-//W3C//DTD SVG 1.1//EN" "http://www.w3.org/Graphics/SVG/1.1/DTD/svg11.dtd">
<svg version="1.1" id="Capa_1" xmlns="http://www.w3.org/2000/svg" xmlns:xlink="http://www.w3.org/1999/xlink" x="0px" y="0px"
	 width="897.366px" height="897.366px" viewBox="0 0 897.366 897.366" style="enable-background:new 0 0 897.366 897.366;"
	 xml:space="preserve">
<g>
	<path d="M895.876,319.58c-0.186-2.846-1.554-4.636-4.307-5.345c-1.941-0.498-3.866-1.047-5.825-1.351
		c-27.962-4.392-55.959-8.681-84.208-10.639c-22.561-1.569-45.152-2.565-67.763-3.58c-43.516-1.949-86.944-0.996-130.223,4.476
		c-26.442,3.344-52.616,8.13-78.046,16.345c-12.85,4.154-25.479,9-38.347,13.086c-20.078,6.357-40.683,9.22-61.52,5.312
		c-12.528-2.355-24.889-5.937-37.038-9.87c-21.984-7.109-43.953-14.117-66.758-18.312c-44.342-8.188-89.021-11.947-130.678-11.499
		c-33.957,0.05-64.461,1.208-94.83,4.854c-24.906,2.988-49.778,6.314-74.651,9.691c-5.285,0.727-10.452,2.28-15.627,3.647
		c-2.769,0.726-4.601,2.565-4.694,5.647c-0.481,14.69-0.988,29.373-1.359,44.081c-0.05,2.212,0.49,4.44,0.828,6.652
		c0.278,1.865,1.3,3.157,3.09,3.942c1.899,0.828,3.85,1.663,5.539,2.828c8.165,5.69,12.099,14.303,15.231,23.243
		c2.229,6.392,3.673,13.044,5.521,19.562c1.148,4.062,2.668,8.029,3.588,12.132c4.314,19.18,8.325,38.444,12.74,57.593
		c4.213,18.271,9.701,36.137,18.439,52.854c9.76,18.675,23.674,32.978,43.421,41.2c11.955,4.981,24.391,8.156,37.14,10.183
		c22.846,3.613,45.828,4.053,68.876,2.381c23.336-1.688,46.376-5.218,68.826-12.006c16.666-5.049,32.421-12.073,45.794-23.454
		c20.415-17.409,36.853-38.077,49.475-61.784c12.614-23.674,21.461-48.847,29.398-74.368c2.288-7.328,4.44-14.699,7.092-21.893
		c3.917-10.596,11.508-17.146,22.812-18.886c3.597-0.558,7.327-0.709,10.976-0.498c8.48,0.498,16.636,2.288,22.292,9.371
		c2.466,3.082,4.745,6.493,6.332,10.098c3.091,7.017,6.029,14.143,8.325,21.438c9.963,31.546,23.185,61.603,39.9,90.155
		c13.862,23.726,32.149,42.891,56.397,56.111c17.139,9.354,35.477,15.315,54.574,19.03c28.723,5.572,57.731,6.938,86.894,5.656
		c17.629-0.761,35.055-3.007,52.008-8.071c17.394-5.218,32.69-13.694,44.122-28.216c7.396-9.371,12.884-19.824,17.394-30.816
		c9.507-23.167,15.618-47.33,21.141-71.68c2.702-11.908,5.488-23.804,8.393-35.675c1.521-6.206,3.429-12.302,5.149-18.447
		c1.604-5.758,2.973-11.601,6.619-16.582c3.664-5.007,7.413-9.912,13.525-12.082c2.668-0.954,4.02-2.811,4.594-5.344
		c0.438-1.959,0.911-3.951,0.911-5.919c0.017-8.789,0.017-17.578-0.236-26.351C896.923,332.167,896.265,325.886,895.876,319.58
		 M37.541,347.399c-9.506,0-17.206-1.891-17.206-4.221c0-2.349,7.7-4.238,17.206-4.238c9.49,0,17.182,1.891,17.182,4.238
		C54.723,345.507,47.031,347.399,37.541,347.399 M369.841,440.337c-6.027,25.653-15.965,49.698-29.271,72.409
		c-7.262,12.411-15.501,24.028-25.953,33.991c-13.796,13.171-30.403,20.938-48.631,25.718
		c-36.904,9.657-74.229,12.072-111.985,6.416c-7.396-1.114-14.691-3.057-21.969-4.896c-14.986-3.85-26.358-12.579-35.004-25.446
		c-9.565-14.252-15.434-29.903-19.368-46.436c-5.133-21.58-8.021-43.515-10.199-65.563c-1.275-12.791-1.03-25.53,0.549-38.254
		c0.793-6.398,1.309-12.899,2.761-19.165c5.133-22.289,18.912-36.49,41.065-42.299c20.246-5.302,40.872-8.426,61.692-10.114
		c15.442-1.267,30.926-1.908,40.922-2.491c35.536,0.448,65.373,2.71,94.729,9.481c11.989,2.744,24.13,5.218,35.098,11.061
		c5.395,2.87,10.63,6.281,15.341,10.165c7.775,6.408,11.744,15.146,13.407,25.024C376.479,400.318,374.51,420.404,369.841,440.337
		 M829.651,430.822c-0.776,30.981-5.995,61.225-17.038,90.3c-4.457,11.771-10.521,22.646-19.639,31.477
		c-10.164,9.861-22.812,15.079-36.253,18.726c-16.887,4.576-34.159,5.675-51.553,5.826c-26.257,0.236-52.126-3.039-77.774-8.494
		c-25.412-5.401-45.677-18.709-61.802-38.854c-20.668-25.835-33.905-55.148-41.318-87.235c-3.429-14.826-6.315-29.744-5.944-45.051
		c0.169-6.585,0.845-13.238,2.044-19.731c2.954-16.176,12.884-26.739,27.844-32.816c15.028-6.079,30.749-9.793,46.604-12.935
		c17.646-3.504,35.442-6.121,53.393-7.277c14.017-0.912,28.064-1.292,37.57-1.706c37.604,1.841,70.479,4.609,102.445,13.728
		c5.877,1.671,11.499,4.348,17.055,6.957c5.269,2.466,9.32,6.501,11.938,11.728c2.889,5.784,5.858,11.566,8.14,17.587
		c2.668,7.059,3.259,14.623,3.546,22.111C829.363,407.047,829.954,418.952,829.651,430.822 M859.319,347.399
		c-9.489,0-17.189-1.891-17.189-4.221c0-2.349,7.7-4.238,17.189-4.238c9.488,0,17.188,1.891,17.188,4.238
		C876.508,345.507,868.808,347.399,859.319,347.399"/>
</g>
<g>
</g>
<g>
</g>
<g>
</g>
<g>
</g>
<g>
</g>
<g>
</g>
<g>
</g>
<g>
</g>
<g>
</g>
<g>
</g>
<g>
</g>
<g>
</g>
<g>
</g>
<g>
</g>
<g>
</g>
</svg>
